HIERARCHY
ROOT Hips
{
	OFFSET 0.0000 0.0000 0.0000
	CHANNELS 6 Xposition Yposition Zposition Zrotation Xrotation Yrotation
	JOINT Ab
	{
		OFFSET -0.0000 8.1305 -0.0000
		CHANNELS 3 Zrotation Xrotation Yrotation
		JOINT Chest
		{
			OFFSET -0.0000 26.2902 -0.0000
			CHANNELS 3 Zrotation Xrotation Yrotation
			JOINT Neck
			{
				OFFSET -0.0000 26.2902 0.0000
				CHANNELS 3 Zrotation Xrotation Yrotation
				JOINT Head
				{
					OFFSET -0.0000 10.8167 0.0000
					CHANNELS 3 Zrotation Xrotation Yrotation
					End Site
					{
						OFFSET -0.0000 16.7167 0.0000
					}
				}
			}
			JOINT LeftCollar
			{
				OFFSET -0.0000 26.2902 0.0000
				CHANNELS 3 Zrotation Xrotation Yrotation
				JOINT LeftShoulder
				{
					OFFSET 19.6667 -0.0000 0.0000
					CHANNELS 3 Zrotation Xrotation Yrotation
					JOINT LeftElbow
					{
						OFFSET 27.2190 0.0000 0.0000
						CHANNELS 3 Zrotation Xrotation Yrotation
						JOINT LeftWrist
						{
							OFFSET 30.7431 0.0000 0.0000
							CHANNELS 3 Zrotation Xrotation Yrotation
							End Site
							{
								OFFSET 0.0000 -14.7500 0.0000
							}
						}
					}
				}
			}
			JOINT RightCollar
			{
				OFFSET -0.0000 26.2902 0.0000
				CHANNELS 3 Zrotation Xrotation Yrotation
				JOINT RightShoulder
				{
					OFFSET -19.6667 0.0000 0.0000
					CHANNELS 3 Zrotation Xrotation Yrotation
					JOINT RightElbow
					{
						OFFSET -27.2190 0.0000 0.0000
						CHANNELS 3 Zrotation Xrotation Yrotation
						JOINT RightWrist
						{
							OFFSET -30.7431 0.0000 0.0000
							CHANNELS 3 Zrotation Xrotation Yrotation
							End Site
							{
								OFFSET -0.0000 -14.7500 0.0000
							}
						}
					}
				}
			}
		}
	}
	JOINT LeftHip
	{
		OFFSET 11.8000 0.0000 0.0000
		CHANNELS 3 Zrotation Xrotation Yrotation
		JOINT LeftKnee
		{
			OFFSET -0.0000 -39.7832 0.0000
			CHANNELS 3 Zrotation Xrotation Yrotation
			JOINT LeftAnkle
			{
				OFFSET -0.0000 -41.7317 0.0000
				CHANNELS 3 Zrotation Xrotation Yrotation
				End Site
				{
					OFFSET -0.0000 -4.9167 16.7167
				}
			}
		}
	}
	JOINT RightHip
	{
		OFFSET -11.8000 0.0000 0.0000
		CHANNELS 3 Zrotation Xrotation Yrotation
		JOINT RightKnee
		{
			OFFSET -0.0000 -39.7832 0.0000
			CHANNELS 3 Zrotation Xrotation Yrotation
			JOINT RightAnkle
			{
				OFFSET -0.0000 -41.7317 0.0000
				CHANNELS 3 Zrotation Xrotation Yrotation
				End Site
				{
					OFFSET -0.0000 -4.9167 16.7167
				}
			}
		}
	}
}
MOTION
Frames: 7
Frame Time: 0.010000
-6.8940 89.8106 95.1618 357.2025 350.0290 188.8096 358.4158 349.0261 1.8942 359.8202 12.1517 2.0686 349.2679 346.8682 354.6390 5.8765 7.4861 355.4891 337.6020 357.3514 13.2698 320.5387 44.2225 354.7509 3.7533 358.3951 315.0913 86.2105 356.2304 336.9279 27.4609 356.0634 343.9758 37.0416 47.7472 12.2524 337.1328 350.2412 46.2249 266.9081 354.1705 3.4565 351.4989 339.2514 357.6402 357.1250 9.9026 0.1586 350.6794 350.9911 16.0559 357.6089 2.4432 3.3594 11.7023 23.1249 14.7919 349.1920 333.2985 317.3242 
-6.8538 89.5997 94.0049 357.1047 350.0640 188.6136 358.4607 348.7422 1.7805 359.3269 12.4555 2.0033 349.4136 346.8329 354.7890 5.8610 7.4350 355.6315 337.7050 357.3607 13.3481 320.5712 43.9820 354.5788 4.0859 358.2348 315.1003 86.7097 356.1690 337.1770 27.6264 356.0802 344.3042 38.0395 47.0217 11.1814 337.9055 350.7264 46.0531 267.2702 354.1378 4.4891 351.3557 339.3629 357.3001 357.1633 11.1418 359.7983 351.7838 351.3712 16.3955 357.2681 2.5275 3.2141 12.1809 24.5110 14.6803 349.9954 332.9288 317.9624 
-6.8545 89.4259 92.7918 356.8202 350.0701 188.3867 358.1616 348.5200 1.7394 359.0804 12.5012 2.0263 349.4590 347.0815 354.9533 5.8321 7.2467 355.7795 337.5610 357.3193 13.4467 320.6752 43.8152 354.5868 4.3345 358.1452 315.0852 86.9803 356.1607 337.4023 27.6684 356.1288 344.5169 38.7273 47.2264 10.4015 338.2240 350.9194 45.2544 267.7658 353.9838 5.0409 351.0023 339.6946 357.1263 357.3266 11.5047 358.8701 352.7623 352.3896 17.6836 356.7799 2.6201 3.6220 12.7399 25.7608 14.3310 350.4250 333.1393 318.3024 
-6.8458 89.3113 91.5683 356.3995 350.1021 188.1506 357.6360 348.3734 1.6780 358.9186 12.5677 2.0408 349.4396 347.0810 355.0559 5.8819 7.1795 355.8887 337.2927 357.2631 13.5907 321.0747 43.6954 354.3682 4.5961 358.0397 315.0283 87.1729 356.0991 337.7293 27.7749 356.1495 344.6516 39.3550 47.3710 9.7007 338.4809 351.1853 44.3551 268.1787 354.1181 5.5114 350.5962 339.9166 357.0466 357.4345 12.4167 357.8010 353.6973 352.8305 19.1093 356.1577 2.6436 3.3417 12.8811 27.3547 14.6966 351.7130 333.0868 318.8620 
-6.8434 89.2527 90.3730 355.8847 350.0863 188.0083 356.9832 348.2839 1.5908 358.7456 12.5572 2.0432 349.5473 347.0026 355.1170 5.7781 7.1940 355.9507 337.2806 357.2472 13.6328 320.7676 43.8470 354.3979 5.3971 357.5682 315.1496 87.3186 355.9115 338.1645 27.8641 356.1612 344.6689 40.0570 47.4423 9.0562 338.7047 351.4741 43.1884 268.6249 353.9478 6.1188 350.1784 339.8005 356.4818 357.2114 14.1329 357.5915 354.1495 352.6217 20.2074 355.4931 2.4429 3.1615 13.0802 29.2279 14.8487 353.1500 333.1564 319.4466 
-6.8552 89.2529 89.2060 355.3604 350.0546 187.9876 356.3012 348.2639 1.5123 358.6426 12.4977 2.0480 349.4618 346.9484 355.1014 5.8537 7.2080 355.9419 336.9697 357.2075 13.6090 321.5147 43.6361 353.9291 5.2900 357.7784 314.9598 87.7558 355.9640 338.3666 27.8255 356.1647 344.6560 41.1130 47.2676 8.0911 338.8231 351.7225 42.0674 269.0914 354.1887 6.4982 349.8107 339.8544 355.2117 356.5995 15.3857 359.2591 355.0249 352.7789 19.9269 354.7766 1.9954 3.1500 13.6862 31.2510 14.0726 354.8144 333.5955 320.5169 
-6.8692 89.2761 88.0367 354.9247 350.0966 188.0101 355.6281 348.4263 1.5180 358.6800 12.2362 2.1147 349.3177 347.1651 355.0467 5.9765 7.0136 355.8801 336.7492 357.2074 13.4399 321.8441 43.7098 353.6857 5.4304 357.7136 314.8574 87.7051 355.9506 338.3533 27.7137 356.1799 344.6234 42.3730 46.8090 6.7999 338.9861 351.9948 40.9989 269.8353 354.3355 7.2102 349.4946 340.0924 354.5804 356.1228 16.4361 0.2256 356.0124 352.9116 19.5435 354.1137 1.3981 2.9436 14.4216 33.6143 13.0333 356.9020 334.2151 322.0001 
